# xmcd
#
# Track frame offsets:
# 150
# 14138
# 28079
# 41908
# 44011
# 44479
# 44940
# 45418
# 45878
# 46421
#
# Disc length: 643 seconds
#
#
# Revision: 0
# Processed by: cddbd v1.5.1PL0 Copyright (c) Steve Scherf et al.
# Submitted via: FreeRIP 2.942 
#
DISCID=9002810a
DTITLE=Boem Lauwe Pattas - Kwileenbird?!
DYEAR=2005
DGENRE=Party
TTITLE0=Kwileenbird?!
TTITLE1=Kwileenbird?! (Instrumental)
TTITLE2=Kwileenbird?! (Sampels: Vocals)
TTITLE3=Kwileenbird?! (Sampels: Main Vocal)
TTITLE4=Kwileenbird?! (Sampels: Chill)
TTITLE5=Kwileenbird?! (Sampels: Ennugajedansen)
TTITLE6=Kwileenbird?! (Sampels: Hier Zijn We Dan)
TTITLE7=Kwileenbird?! (Sampels: Kwileenbeurt)
TTITLE8=Kwileenbird?! (Sampels: Schuddenmetdiebillen)
TTITLE9=Kwileenbird?! (Sampels: Tussenvocal)
EXTD=http://popattiesten-dance.pagina.nl
EXTT0=
EXTT1=
EXTT2=
EXTT3=
EXTT4=
EXTT5=
EXTT6=
EXTT7=
EXTT8=
EXTT9=
PLAYORDER=
